<svg width="650" height="638" viewBox="0 0 650 638" fill="none" xmlns="http://www.w3.org/2000/svg">
<rect width="650" height="638" rx="78" fill="#393636"/>
<path d="M304.867 257H344.107V381.407H304.867V257ZM146.765 257H50V295.154H87.996V381.271H128.372V295.154H166.46L154.081 262.101C153.524 260.608 152.526 259.32 151.219 258.409C149.912 257.497 148.358 257.006 146.765 257ZM434.586 314.489L392.472 260.721C391.564 259.562 390.405 258.624 389.081 257.98C387.757 257.335 386.305 257 384.832 257H360.301V381.394H399.211V323.881L441.28 377.656C442.184 378.819 443.341 379.761 444.664 380.409C445.987 381.057 447.441 381.393 448.914 381.394H473.471V257H434.584L434.586 314.489ZM254.387 262.189L231.677 325.691L209.049 262.202C208.508 260.684 207.512 259.37 206.196 258.439C204.881 257.508 203.31 257.006 201.699 257H164.069L211.821 381.394H251.515L299.29 257H261.754C260.142 257.006 258.572 257.507 257.255 258.434C255.937 259.362 254.937 260.672 254.388 262.187L254.387 262.189ZM599.044 311.113H554.983V347.082H529.022V292.625H579.321C581.457 292.618 583.541 291.961 585.296 290.742C587.05 289.523 588.392 287.799 589.143 285.799L600 257H489.783V381.407H599.044V311.113Z" fill="#FF153D"/>
</svg>
